<svg width="376" height="457" viewBox="0 0 376 457" fill="none" xmlns="http://www.w3.org/2000/svg">
<path d="M162.265 34.7075C175.058 17.4394 200.898 17.4393 213.691 34.7074L360.444 232.798C369.477 244.991 368.864 262.112 356.639 271.104C274.877 331.242 95.1788 333.851 17.4132 271.064C6.11421 261.941 6.02137 245.609 14.6661 233.94L162.265 34.7075Z" fill="white" fill-opacity="0.1"/>
<path d="M162.31 173.788C175.102 156.52 200.942 156.52 213.735 173.788L360.488 371.879C369.521 384.072 368.908 401.193 356.684 410.184C274.921 470.323 95.223 472.932 17.4574 410.144C6.1584 401.022 6.06556 384.69 14.7103 373.021L162.31 173.788Z" fill="white" fill-opacity="0.1"/>
</svg>
